<?xml version="1.0"?>
<svg width="170" height="175" xmlns="http://www.w3.org/2000/svg" xmlns:svg="http://www.w3.org/2000/svg" version="1.1" xml:space="preserve">
 <desc>Created with Fabric.js 5.2.4</desc>

 <g class="layer">
  <title>Layer 1</title>
  <g id="a1f11da7-24e8-4461-9ccc-27710742c2ed" transform="matrix(1 0 0 1 540 540)"/>
  <g id="svg_2" transform="matrix(0.41 0 0 0.41 551.22 584.02)">
   <path d="m-788.56,-798.3l-27.8,-119.8l-96.1,62.3l29.4,14.2c-26,72.1 -141.7,118.4 -250.5,14.2c75.9,143 254.9,129.9 316.7,14.7l28.3,14.4z" fill="rgb(1,168,158)" fill-rule="nonzero" id="svg_3" stroke-dashoffset="0" stroke-miterlimit="4" transform="translate(-148.7 -279.34)"/>
  </g>
  <g id="svg_4" transform="matrix(0.41 0 0 0.41 492.54 573.49)">
   <path d="m-1158.96,-908.4c0,0 8.4,49.1 23.6,69.2c0,0 38.7,37 85.9,54.9c-36,-62 -40.8,-113.9 -41.6,-117.2c-16.3,3.2 -45.1,5.9 -67.9,-6.9z" fill="rgb(141,198,60)" fill-rule="nonzero" id="svg_5" stroke-dashoffset="0" stroke-miterlimit="4" transform="translate(-5.55 -253.65)"/>
  </g>
  <g id="svg_6" transform="matrix(0.41 0 0 0.41 528.76 496)">
   <path d="m-1188.36,-1057.9l27.7,119.8l96.1,-62.3l-29.4,-14.2c26,-72.1 141.7,-118.4 250.5,-14.2c-75.9,-143.1 -254.9,-130 -316.7,-14.8l-28.2,-14.3z" fill="rgb(1,168,158)" fill-rule="nonzero" id="svg_7" stroke-dashoffset="0" stroke-miterlimit="4" transform="translate(-93.85 -64.42)"/>
  </g>
  <g id="svg_8" transform="matrix(0.41 0 0 0.41 587.36 506.52)">
   <path d="m-817.96,-947.8c0,0 -8.4,-49.1 -23.6,-69.2c0,0 -38.7,-37 -85.9,-54.9c36,62 40.8,113.9 41.6,117.2c16.3,-3.2 45,-5.9 67.9,6.9z" fill="rgb(141,198,60)" fill-rule="nonzero" id="svg_9" stroke-dashoffset="0" stroke-miterlimit="4" transform="translate(-237.05 -90.15)"/>
  </g>
  <g id="svg_10" transform="matrix(0.41 0 0 0.41 539.95 540.06)">
   <path d="m-1002.56,-819.7l0,-25.2c-17.8,-0.8 -35.1,-5.8 -45.2,-11.4l8,-31.1c11.2,6.1 26.8,11.7 44.1,11.7c15.4,0 25.8,-6.1 25.8,-16.5c0,-10.1 -8.5,-16.5 -28.4,-23.1c-28.4,-9.6 -47.8,-22.8 -47.8,-48.6c0,-23.6 16.5,-42 44.9,-47.3l0,-25.2l26,0l0,23.4c17.5,0.5 29.5,4.5 38.8,8.8l-8,30c-6.6,-3.2 -19.1,-9.3 -38.2,-9.3c-17.3,0 -22.8,7.7 -22.8,15.1c0,8.5 9.3,14.3 32.1,22.6c31.6,11.2 44.1,25.8 44.1,49.9c0,23.6 -16.5,43.8 -47,48.9l0,27.4l-26.4,0l0,-0.1z" fill="rgb(141,198,60)" fill-rule="nonzero" id="svg_11" stroke-dashoffset="0" stroke-miterlimit="4" transform="translate(-121.3 -172)"/>
  </g>
 </g>
</svg>